<svg id="logo" xmlns="http://www.w3.org/2000/svg" width="135" height="46.28" viewBox="0 0 135 46.28">
  <g id="Groupe_357" data-name="Groupe 357">
    <path id="Tracé_428" data-name="Tracé 428" d="M23.127,5.116A5.243,5.243,0,0,0,17.766,0a5.34,5.34,0,0,0-5.132,3.624A6.148,6.148,0,0,0,11.3,3.474,5.706,5.706,0,0,0,5.463,9.042a5.312,5.312,0,0,0,.14,1.2,4.181,4.181,0,0,0-2.575,3.814,4.051,4.051,0,0,0,.536,2.01A9.174,9.174,0,0,0,3.5,30.548a4.027,4.027,0,0,0-.469,1.876,4.191,4.191,0,0,0,2.63,3.837,5.52,5.52,0,0,0-.2,1.43,5.843,5.843,0,0,0,5.976,5.7,6.155,6.155,0,0,0,1.413-.168A5.378,5.378,0,0,0,17.76,46.28a5.243,5.243,0,0,0,5.361-5.116V5.116Z" transform="translate(0.01)" fill="#3e3d40"/>
    <path id="Tracé_429" data-name="Tracé 429" d="M58.026,45.464v-2.48a1.27,1.27,0,0,0-1.418-1.452H56.1c-.921,0-1.385.486-1.385,1.452V47a1.188,1.188,0,0,0,.268.91,6.853,6.853,0,0,0,.877.609l3.072,1.653a15.425,15.425,0,0,1,1.435.894,2.31,2.31,0,0,1,.659.776,4.292,4.292,0,0,1,.235,1.737v5.166q0,4.08-3.915,4.082H55.351q-3.879,0-3.881-4.457V57.152h3.239V58.47a1.27,1.27,0,0,0,1.452,1.418h.575c.854,0,1.284-.475,1.284-1.418V54.354a1.188,1.188,0,0,0-.268-.91,7.482,7.482,0,0,0-.877-.609L53.8,51.115a9.5,9.5,0,0,1-1.469-.91,2.094,2.094,0,0,1-.659-.961,4.85,4.85,0,0,1-.2-1.536V42.749q0-4.147,3.881-4.149h2.027q3.879,0,3.881,4.149v2.72H58.026Z" transform="translate(-20.758 -17.043)" fill="#3e3d40"/>
    <path id="Tracé_430" data-name="Tracé 430" d="M83.817,57.158V58.71q0,4.121-3.881,4.116H77.841q-3.879,0-3.881-4.116V42.716q0-4.121,3.881-4.116h2.094q3.879,0,3.881,4.116v2.731H80.578v-2.5a1.27,1.27,0,0,0-1.452-1.418h-.642c-.854,0-1.284.475-1.284,1.418V58.476c0,.944.43,1.418,1.284,1.418h.81c.854,0,1.284-.475,1.284-1.418V57.158Z" transform="translate(-29.829 -17.043)" fill="#3e3d40"/>
    <path id="Tracé_431" data-name="Tracé 431" d="M103.891,62.822V52.205H99.909V62.822H96.67V38.59h3.239V49.273h3.982V38.59h3.239V62.822Z" transform="translate(-38.971 -17.039)" fill="#3e3d40"/>
    <path id="Tracé_432" data-name="Tracé 432" d="M125.331,59.889h1.653c.854,0,1.284-.475,1.284-1.418V42.945a1.27,1.27,0,0,0-1.452-1.418H125.3a1.255,1.255,0,0,0-1.419,1.418V58.47a1.27,1.27,0,0,0,1.452,1.418m-.776,2.938q-3.912,0-3.915-4.116V42.749q0-4.155,3.881-4.149h3.105q3.879,0,3.881,4.149V58.71q0,4.121-3.915,4.116Z" transform="translate(-48.62 -17.043)" fill="#3e3d40"/>
    <path id="Tracé_433" data-name="Tracé 433" d="M150.141,59.889h1.653c.854,0,1.284-.475,1.284-1.418V42.945a1.27,1.27,0,0,0-1.452-1.418h-1.519a1.255,1.255,0,0,0-1.418,1.418V58.47a1.27,1.27,0,0,0,1.452,1.418m-.776,2.938q-3.912,0-3.915-4.116V42.749q0-4.155,3.881-4.149h3.105q3.879,0,3.881,4.149V58.71q0,4.121-3.915,4.116Z" transform="translate(-58.62 -17.043)" fill="#3e3d40"/>
    <path id="Tracé_434" data-name="Tracé 434" d="M176.514,62.822H170.03V38.59h3.239V59.884h3.245Z" transform="translate(-68.765 -17.039)" fill="#3e3d40"/>
    <path id="Tracé_435" data-name="Tracé 435" d="M56.412,9.91,58.931.79h2.435V19.013H58.931V7.838l-1.413,4.334h-2.2L53.9,7.838V19.013H51.47V.79h2.161Z" transform="translate(-20.756 -0.349)" fill="#3e3d40"/>
    <path id="Tracé_436" data-name="Tracé 436" d="M77.071.79h2.156L76.284,12.808v6.2H73.877v-6.2L70.85.79H73l2.077,9.12Z" transform="translate(-28.609 -0.349)" fill="#3e3d40"/>
    <rect id="Rectangle_216" data-name="Rectangle 216" width="2.44" height="2.206" transform="translate(64.36 0.441)" fill="#36b7c1"/>
    <rect id="Rectangle_217" data-name="Rectangle 217" width="2.44" height="2.206" transform="translate(78.856 0.441)" fill="#36b7c1"/>
    <path id="Tracé_437" data-name="Tracé 437" d="M185.97,5.116A5.243,5.243,0,0,1,191.331,0a5.34,5.34,0,0,1,5.132,3.624,6.148,6.148,0,0,1,1.335-.151,5.706,5.706,0,0,1,5.836,5.568,5.312,5.312,0,0,1-.14,1.2,4.181,4.181,0,0,1,2.575,3.814,4.051,4.051,0,0,1-.536,2.01,9.174,9.174,0,0,1,.067,14.481,4.027,4.027,0,0,1,.469,1.876,4.191,4.191,0,0,1-2.63,3.837,5.52,5.52,0,0,1,.2,1.43,5.843,5.843,0,0,1-5.976,5.7,6.156,6.156,0,0,1-1.413-.168,5.378,5.378,0,0,1-4.909,3.055,5.243,5.243,0,0,1-5.361-5.116V5.116Z" transform="translate(-74.107)" fill="#36b7c1"/>
    <path id="Tracé_438" data-name="Tracé 438" d="M93.775,16.8H95.6c.642,0,.966-.268.966-.81V4.319C96.567,3.443,96.2,3,95.478,3h-1.7V16.807ZM91.34,19.007V.79h4.239q3.426,0,3.429,3.5v12.08q0,2.639-2.921,2.642H91.34Z" transform="translate(-36.904 -0.349)" fill="#36b7c1"/>
    <path id="Tracé_439" data-name="Tracé 439" d="M143.779,3V19.013h-2.435V3H139.01V.79h7.1V3Z" transform="translate(-56.192 -0.349)" fill="#36b7c1"/>
    <path id="Tracé_440" data-name="Tracé 440" d="M158.217,8.9V4.063A.944.944,0,0,0,157.151,3h-.659a.944.944,0,0,0-1.067,1.067V8.9Zm-2.792,10.1H152.99V3.912q0-3.125,2.921-3.122h1.826c1.943,0,2.921,1.039,2.921,3.122v15.1h-2.435v-7.9H155.43v7.9Z" transform="translate(-61.817 -0.349)" fill="#36b7c1"/>
    <path id="Tracé_441" data-name="Tracé 441" d="M174.867,19.013H170.02V.79h2.435V16.8h2.413Z" transform="translate(-68.846 -0.349)" fill="#36b7c1"/>
    <path id="Tracé_442" data-name="Tracé 442" d="M123.509,5.949V3.972Q123.509.8,120.416.8H118.74c-1.876,0-2.82,1.039-2.82,3.122V15.951q0,3.074,2.82,3.072h4.769V8.909h-3.786v2.178h1.351v5.719h-1.647c-.709,0-1.067-.441-1.067-1.318V4.324c0-.877.357-1.318,1.067-1.318h.609c.692,0,1.039.441,1.039,1.318V5.949h2.435Z" transform="translate(-46.84 -0.353)" fill="#36b7c1"/>
    <rect id="Rectangle_218" data-name="Rectangle 218" width="2.435" height="13.068" transform="translate(64.366 5.596)" fill="#36b7c1"/>
    <rect id="Rectangle_219" data-name="Rectangle 219" width="2.435" height="13.068" transform="translate(78.862 5.596)" fill="#36b7c1"/>
  </g>
</svg>
